<svg id="Layer_0_Image" data-name="Layer 0 Image" xmlns="http://www.w3.org/2000/svg" viewBox="0 0 302.51 190.82"><defs><style>.cls-1{fill:#fff}</style></defs><path d="M.27 174.36c1-2.68 2-5.35 3-8q5.5-15.47 11-31c.32-.91.66-1.3 1.72-1.14 3.28.48 6.57.83 10.08 1.25l-10.85 30c2.08.23 4 .45 6 .65l81.78 8.3 59 6a2.22 2.22 0 002-.74q61.87-62.24 123.82-124.48c.25-.25.48-.53.83-.9l-26-30.07 6.74-7.71 33.44 38.77a4.9 4.9 0 00-1.33.69q-66.61 67-133.19 134.09c-.38.38-.73.81-1.09 1.21H165a12.19 12.19 0 00-1.31-.28l-11.93-1.19-45.43-4.53-42.18-4.2-45.43-4.53c-6.15-.62-12.29-1.26-18.44-1.9q-.01-.15-.01-.29z" transform="translate(-.27 -.45)"/><path d="M239.28 20.38l-107.12-9.76a5.86 5.86 0 01.58-.78c3.19-3 6.37-6 9.6-8.9a2.24 2.24 0 011.56-.48q35 3.57 70 7.2l46.25 4.73c.35 0 .69.12 1 .19l.38.49A8 8 0 00260 14q-58 57.82-116 115.63a2.22 2.22 0 00-.57 2.9q7.86 18.94 15.61 37.94c.18.45.35.91.62 1.58l-5.73-.49c-1.4-.13-2.8-.38-4.21-.38-1.22 0-1.69-.56-2.11-1.62-4.11-10.44-8.3-20.85-12.41-31.29a2.54 2.54 0 00-2.5-1.9q-34.41-3.26-68.8-6.66l-45.32-4.4-1.17-.14c.48-.44.79-.74 1.11-1l83.27-68.55a18.31 18.31 0 001.75-1.51c.35-.37.82-1 .72-1.31s-.81-.72-1.29-.8c-1.61-.25-3.25-.4-4.87-.56-5.56-.55-11.13-1.06-16.69-1.65-1-.11-1.32.27-1.6 1.13-2.26 7-4.59 14-6.84 21a1.57 1.57 0 01-1.8 1.32c-2.81-.08-5.63 0-8.6 0 .1-.45.15-.83.26-1.19 2.45-7.61 4.89-15.22 7.41-22.81a4.71 4.71 0 011.54-1.76q8.5-7.27 17-14.49Q101.71 22 114.57 11.16a3.32 3.32 0 012.16-.71c4.26.3 8.51.73 12.77 1.12.21 0 .41.07.94.16L94.91 41.19c.79.12 1.3.22 1.81.27 5.16.5 10.31 1 15.47 1.48 4.37.4 6.42 2.93 5.68 7.28s-3.26 7.57-6.51 10.25q-33.5 27.64-67 55.22c-.35.29-.68.58-1.26 1.08.68.11 1.13.2 1.58.25l49.78 5c12.12 1.23 24.23 2.45 36.34 3.73a4.2 4.2 0 003.82-1.32Q186.4 73.09 238.3 21.81a13.37 13.37 0 011.28-1z" transform="translate(-.27 -.45)"/><path d="M224.69 101.32a5.42 5.42 0 01-.64 1.16c-1.9 2.07-3.75 4.22-5.79 6.14-2.69 2.53-5.94 2.76-9.27 1.48a16.88 16.88 0 01-2.6-1.9 14.86 14.86 0 01.51 12.49c-1.59.61-1.53-1.1-2.31-2a16.38 16.38 0 00-1.05 1.38c-1.39 2.29-2.74 4.6-4.16 6.88a2.43 2.43 0 01-1.23 1.12 4.29 4.29 0 00-2.67 2c-.63.93-1.47.62-2.15.25-1.64-.88-3.21-1.88-4.8-2.84-.46-.28-.9-.57-1.67-1.07-1.15 2.63-2.54 5-3.19 7.6-.41 1.6.24 3.49.51 5.23.34 2.12.34 2.17-1.82 2.31h-.27c-2.71.34-3.36-.12-3.65-2.8a90.1 90.1 0 00-3.54-17.43c-.33-1-.8-2-1.15-3a2.54 2.54 0 01-.19-1.42c.56-1.83 3.66-2.92 5.27-1.83 1.77 1.19 3.44 2.52 5.15 3.8s1.63 1.22 2.88-.32c.71-.87 1.5-1.67 2.28-2.48a1 1 0 01.63-.31c1 0 1.16-.62.89-1.28-1.44-3.52-3-7-4.4-10.53a3.34 3.34 0 01-.17-2.25c.59-1.44 3.75-2.23 5-1.33a2.78 2.78 0 01.81 1.33c2 5.63 4 11.26 6.07 17.19 1.54-1.77 3-3.36 4.32-5 .2-.25 0-.95-.21-1.39-1.93-5.09-3.89-10.17-5.83-15.25-.4-1.06-.92-2.12.09-3.16a4.25 4.25 0 014.25-1.53 2 2 0 011.09 1.17c.45 1.28.73 2.62 1.09 3.93a2.3 2.3 0 00.68 1.19c0-1.75-.1-3.5 0-5.24.4-6 3.38-10.51 7.92-14.17a4 4 0 01.59-.35c1.91-1.06 2.77-1 4.65.7-.38-1.12-.61-1.94-.94-2.72a2.4 2.4 0 01.8-3.12 4.13 4.13 0 014.16-.93c.32.11.56.69.69 1.1q2.91 8.84 5.78 17.7a18.23 18.23 0 01.4 3.94c.19 1.91-1 3.39-.78 5.15l-2.13.41a6.9 6.9 0 00-.17-2c-1.51-3.83-3.1-7.63-4.64-11.46-.86-2.13-1.66-4.28-2.49-6.42l-1.26 1.33c-1.63 1.74-3.58 3.28-4.81 5.27-2.92 4.74-2.51 9.69.11 14.46.92 1.67 2.41 2 4.06 1a22.6 22.6 0 003-2.15c.8-.66 1.45-1.52 2.29-2.13.4-.29 1.07-.18 1.82-.28l-.76 1.26c1.1 1.36 1.2 1.37 2.2.32zm-31 23.26l.26-.19-1.76-5.56-2.41 3.32zm-11.88 1.67l1.34-2.21-2.15-1.43zM83.51 140.43c.7-.7 1.15-1.54 1.75-1.67 1.52-.32 3.24-.4 4.24 1.05a21.55 21.55 0 011.69 3.8l1.95 4.47c2.86-2.4 5.33-4.52 7.85-6.58a7.11 7.11 0 012.21-1.26 3.82 3.82 0 015.25 2.68c2.69-.64 5.34-1.46 8-1.86a44.33 44.33 0 017.19-.23c1.57 0 2.27 1 2.16 2.6a13.12 13.12 0 01-.17 1.62 1.9 1.9 0 01-2.28 1.76c-5.26-.45-10.28.75-15.22 2.4-.25.08-.48.21-1.06.47.63.22 1 .35 1.31.44 2.76.73 5.53 1.42 8.27 2.2a6.09 6.09 0 012 1.07 3.83 3.83 0 011.57 3.89 6.51 6.51 0 01-4.32 5.63 61.26 61.26 0 01-13.12 3.46c-3.34.62-6.7 1.11-10.34 1.7l1.31-.88h-1.4c.61-1.84-1.17-2.47-1.83-3.86 7.43-2.3 15.33-2.71 22.57-5.9-1.8-.36-3.61-.7-5.4-1.1-1.46-.33-2.9-.72-4.34-1.12a5.4 5.4 0 01-4.21-4.94c-.47.33-.87.59-1.25.87-4.26 3.09-8.59 6.08-12.74 9.31-2.45 1.91-4.59 4.21-6.88 6.32-.27.25-.78.59-1 .49a24 24 0 01-3.77-2.18c-.28-.21-.21-1.3.06-1.77a21 21 0 012.23-2.64c-4.15.48-8 .87-11.78 1.41a5 5 0 00-2.14 1.24c-.62.49-1 .87-1.85.23a8.27 8.27 0 00-2.32-1c-1-.35-1.35-.93-.79-1.91l10.39-18.37a40.24 40.24 0 012.34-4 2.61 2.61 0 011.9-1c3.53.16 7.06.47 10.58.8.31 0 .62.56.83.92a10.29 10.29 0 01.56 1.44zm-6.46 18c1.78.33 9.92-5.31 11.78-7.95a2.72 2.72 0 00-.15-.37c-1.4-2.37-2.78-4.75-4.23-7.1a1.36 1.36 0 00-1.08-.51c-2.43.25-4.85.63-7.28.86-2.19.21-2.88 1.86-3.8 3.7a35.16 35.16 0 013.67 0 2.28 2.28 0 011.26.83c-.55 1.43.71 2.13 1.34 3.31-2.67.34-5.17.72-7.69 1a5 5 0 00-4.52 4.34c3-.2 5.91-.39 8.84-.61 1.06-.08 2.07-.07 2.67.86zM245.87 72c1.08 6.39-2 10.84-6.93 14.15s-13.95 1-15.2-6.78c-1.14-7.07 1.12-13.35 5.28-19a3.88 3.88 0 014.82-.7 1.63 1.63 0 01.36 1.28 4.53 4.53 0 01-.52 1.29l7 2.28c-.13-.38-.29-.91-.5-1.42-1-2.61-2.14-5.2-3.14-7.83a3.15 3.15 0 012.41-4.57 2.57 2.57 0 013.37 1.67c1 2.58 1.68 5.3 2.86 7.78a79.23 79.23 0 004.3 7.2 3.28 3.28 0 00.66.61l.45-.06a52.18 52.18 0 000-6.41c-.52-4.54-1.13-9.08-2.92-13.39a15.8 15.8 0 01-.54-4c-.08-.62-.18-1.23-.34-2.33l3.83 2.14c1.19-2.88 2.21-5.95 3.7-8.77a41.11 41.11 0 014.49-6.3c1.14-1.42 2.29-1.25 3.87.28 1.32 1.28 1.36 2.19.15 3.46-3.42 3.59-5.4 8-6.88 12.78l1.1-.79c2.06-1.48 4-3.11 6.22-4.4 3.16-1.89 6.68-.2 7.39 3.43a4.18 4.18 0 01-.3 2.12c-1.12 3-2.11 6.08-3.52 9-1.69 3.46-3.76 6.74-5.65 10.1a1.57 1.57 0 01-2.17.61c-1.65-.62-2.3-.34-2.78 1.27-.89 3-4.59 6.92-8.44 6.19a18.38 18.38 0 01-2.43-.89zm-7.12 1c.36-2-.62-4-2.2-5.63a31.8 31.8 0 00-3.17-2.53c-.75-.61-1.23-.42-1.7.4a17.89 17.89 0 00-2.33 8.42A19.55 19.55 0 00230 80c.93 3 3.43 3.35 5.71 1.2s3.13-4.75 3.04-8.2zm26.7-27.24l-9.72 7.15L257.11 63c2.89-5.74 6.27-11.07 8.35-17.23zM144.15 23.69L138 30.45l6.94.71c3.57.35 7.14.73 10.72 1a2.86 2.86 0 001.91-.63c2.65-2.35 5.2-4.81 7.85-7.17a2.59 2.59 0 011.78-.57c3.39.34 6.77.78 10.15 1.19.39 0 .77.15 1.65.34-.65.46-1 .69-1.38 1-5.6 5-11.21 10.09-16.77 15.18a2.82 2.82 0 01-2.45.75q-14.44-1.46-28.88-2.82a2.71 2.71 0 00-1.88.69 38.35 38.35 0 00-2.71 3.15l-15.85-10.94zM168.53 139.71c.16 1.44.27 2.88.47 4.31a3.26 3.26 0 01-4.31 3.84 19.69 19.69 0 01-3-1.27c-.44-.2-.84-.46-1.64-.9l5.53 14.75a18.92 18.92 0 01-2.66 2.15 1.84 1.84 0 01-1.73-.23 8.54 8.54 0 01-1.62-2.65c-1.86-4.77-3.62-9.58-5.44-14.36-.74-1.95-1.64-3.84-2.3-5.81a3.44 3.44 0 014.08-4.2 2.86 2.86 0 011.21.77c1 1 1.91 2.2 3 3.2s2 1.62 3.29 2.64a12.65 12.65 0 00.23-1.57c0-3.9-.08-7.8-.17-11.69a4.22 4.22 0 013.58-4.62 1.63 1.63 0 012 1c1 2.37 2.13 4.72 3 7.14 1.73 4.67 3.34 9.39 5 14.09.59 1.71.23 2.34-1.93 3.33-1.18.55-2-.18-2.41-1.11-1.14-2.46-2.16-5-3.22-7.47-.2-.48-.34-1-.51-1.48zM50.52 141.46c.62-.2 1-.32 1.43-.48 3.46-1.35 6.92-2.73 10.4-4a8.16 8.16 0 012.72-.56c.47 0 .95.56 1.49.91l-1.72 1.35 1.22 2.26-8.06 3.63a17.17 17.17 0 01-2.36 1c-1.3.36-1.45 1.12-1.31 2.34.42 3.47.69 7 1 10.43v.82c0 .93.43 2.1 0 2.72s-1.63.58-2.51.68a2.07 2.07 0 01-1.47-.41 6.5 6.5 0 01-2.09-4.3c-.25-2.62-.65-5.22-1-7.83a7.45 7.45 0 00-.26-.92c-2.21 1-4.42 1.7-5.86 3.81a46.73 46.73 0 01-3.52 4.31c-.35.4-1 .54-1.34.94-1.15 1.32-2.23 2.71-3.35 4.08a12 12 0 00-1.63-.79c-1.42-.48-1.83-1.2-1.09-2.51 1.77-3.12 3.5-6.27 5.48-9.25 2.74-4.11 5.66-8.11 8.61-12.08a19.46 19.46 0 013-2.92 2 2 0 012.82 0c1.37 1.18 2 2.5 1.38 3.63s-1.2 1.95-1.98 3.14z" transform="translate(-.27 -.45)"/><path class="cls-1" d="M193.67 124.58l-3.91-2.43 2.41-3.32 1.76 5.56zM181.79 126.25l-.82-3.64 2.16 1.43z" transform="translate(-.27 -.45)"/></svg>
